# xmcd CD database file
#
# Track frame offsets:
#	182
#	13975
#	35817
#	48222
#	66112
#	78230
#	88785
#	101230
#	118787
#	135167
#	148125
#	165450
#
# Disc length: 2363 seconds
#
# Revision: 2
# Processed by: cddbd v1.4b41PL1 Copyright (c) Steve Scherf et al.
# Submitted via: Feurio! 1.60 - http://www.feurio.com
#
DISCID=a209390c,b109390c
DTITLE=Various Artist - Highway Helden                                                
DTITLE=                         #A209390C7CC70FAD
DYEAR=1900
DGENRE=
TTITLE0=Truck Stop - Tausend Meilen
TTITLE1=Jonny Hill - Ruf Teddybär Eins - Vier
TTITLE2=Mike Frajria - Dusty Boots
TTITLE3=Jonny Hill - Träume, hat jeder
TTITLE4=Tom Astor - Vierzehn Tage auf dem Brenner
TTITLE5=Johnny Guitarro - Liebe unter Sternen
TTITLE6=Tom Astor - Junge, zieh' die Bremse an
TTITLE7=Tom Astor - Mein Truck ist auch für zwei nicht zu klein
TTITLE8=Mike Frajria - Moonchild
TTITLE9=Jonny Hill - Die letzte Reise
TTITLE10=Johnny Guitarro - Song os Love
TTITLE11=Carl Kaye - Bring mich Heim, Autobahn
EXTD=
EXTT0=
EXTT1=
EXTT2=
EXTT3=
EXTT4=
EXTT5=
EXTT6=
EXTT7=
EXTT8=
EXTT9=
EXTT10=
EXTT11=
PLAYORDER=
